# xmcd CD database file
#
# Track frame offsets:
#	150
#	5301
#	21642
#	37903
#	56261
#	63310
#	81455
#	103079
#	123136
#	143149
#	160702
#	185595
#
# Disc length: 2564 seconds
#
# Revision: 4
# Processed by: cddbd v1.5.2PL0 Copyright (c) Steve Scherf et al.
# Submitted via: CDex 1.51
#
DISCID=970a020c
DTITLE=Múgsefjun - Skiptar skoðanir
DYEAR=2008
DGENRE=Country
TTITLE0=Svarthvíta stefið
TTITLE1=Kalin slóð
TTITLE2=Dag eftir dag
TTITLE3=Lauslát
TTITLE4=Fallega lagið
TTITLE5=Skiptar skoðanir
TTITLE6=Í Unuhúsi
TTITLE7=Hagsmunatíkin
TTITLE8=Kisi
TTITLE9=Álfar
TTITLE10=Óskrifað blað
TTITLE11=O.s.frv.
EXTD=YEAR: 2008
EXTT0=
EXTT1=
EXTT2=
EXTT3=
EXTT4=
EXTT5=
EXTT6=
EXTT7=
EXTT8=
EXTT9=
EXTT10=
EXTT11=
PLAYORDER=
